<svg viewBox="0 0 1004 799">
<defs>
<path d="M78.718 244.643c42.71-.445 87.638-.326 134.782.357 8.444.122 241.203 101.5 249 101.5 70.327 0 143.019-91.542 266-101.5 16.956-1.373 56.275-1.538 117.956-.495C861.188 244.754 873 256.767 873 271.5V653c0 14.91-12.088 27-27 27H79c-14.912 0-27-12.09-27-27V271.64c0-14.801 11.917-26.844 26.718-26.998z" id="prefix__a"></path><path d="M26.84 61.514c49.155-.293 100.927-.227 155.315.198 9.524.074 442.155 6.054 580.864 0 19.415-.848 64.826-.938 136.233-.272C914.065 61.578 926 73.625 926 88.439v213.856c0 13.644-10.18 25.144-23.723 26.8C698.347 354.032 551.922 366.5 463 366.5c-88.922 0-235.348-12.468-439.277-37.405C10.179 327.44 0 315.94 0 302.295V88.513c0-14.849 11.99-26.91 26.84-27z" id="prefix__b"></path><path id="prefix__c" d="M391 343h154v39H391z"></path></defs><g fill="none" fill-rule="evenodd"><g transform="translate(0 18)"><use fill="#FFF" xlink:href="#prefix__a"></use><path stroke="#4B0005" stroke-width="38" d="M210.95 263.965c-46.16-.652-90.172-.76-132.033-.323a8 8 0 00-7.917 8V653a8 8 0 008 8h767a8 8 0 008-8V271.5a8 8 0 00-7.865-7.998c-61.008-1.031-100.002-.868-116.102.436-25.195 2.04-49.404 7.839-73.957 17.182-20.125 7.658-39.414 17.156-63.649 30.76-7.232 4.06-30.983 17.732-32.756 18.741-12.806 7.288-22.418 12.472-31.726 16.982C503.5 359.447 482.98 365.5 462.5 365.5c-5.972 0-12.824-2.665-48.294-17.295-19.171-7.906-36.735-15.273-83.446-34.944l-.152-.064c-43.748-18.423-63.785-26.82-83.068-34.757-12.057-4.963-21.43-8.744-28.128-11.337-3.456-1.339-6.153-2.342-8.017-2.985a73.672 73.672 0 00-.445-.153z"></path></g><g transform="translate(0 18)"><use fill="#FFF" xlink:href="#prefix__b"></use><path stroke="#4B0005" stroke-width="38" d="M26.952 80.513a8 8 0 00-7.952 8v213.782a8 8 0 007.029 7.94C229.245 335.086 375.045 347.5 463 347.5c87.955 0 233.755-12.415 436.971-37.264a8 8 0 007.029-7.941V88.439a8 8 0 00-7.925-8c-71.04-.663-116.278-.573-135.227.254-51.477 2.247-145.489 3.017-270.24 2.633-60.213-.185-124.503-.631-190.26-1.262-50.575-.485-128.703-1.41-121.342-1.353-54.302-.424-105.987-.49-155.054-.198z"></path></g><path d="M510 380h-84.432c2.67 32.755 5.14 58.504 7.399 77.199 1.325 10.962 2.568 19.405 3.7 25.22.369 1.9.714 3.454 1.016 4.618C444.648 493.81 456.135 497 467.5 497c.627 0 1.032.003 2.308.013 11.667.092 17.996-.921 24.99-5.091 2.18-1.3 4.287-2.893 6.33-4.83.212-1.002.445-2.253.688-3.728.94-5.72 1.927-14.12 2.931-25.081 1.725-18.831 3.478-44.942 5.254-78.283z" stroke="#4B0005" stroke-width="38"></path><g transform="translate(0 18)"><use fill="#FFF" xlink:href="#prefix__c"></use><path stroke="#4B0005" stroke-width="38" d="M410 362h116v1H410z"></path></g><path d="M269.5 19.5h390.155" stroke="#4B0005" stroke-width="38" stroke-linecap="square"></path><path d="M269.5 19.5V85M659.5 21.5V87" stroke="#4B0005" stroke-width="10" stroke-linecap="square"></path><g transform="translate(613 408)"><circle stroke="#979797" fill="#4B0005" cx="195" cy="195" r="195"></circle><text font-family="Helvetica" font-size="271" fill="#FFF"><tspan x="127.641" y="278">1</tspan></text></g></g></svg>