<?xml version="1.0" encoding="iso-8859-1"?>
<!-- Generator: Adobe Illustrator 18.1.1, SVG Export Plug-In . SVG Version: 6.00 Build 0)  -->
<svg viewBox="0 0 200 47"><g fill="bisque" fill-rule="evenodd"><path d="M134.486.207c-8.007.97-16.073 3.82-22.525 7.962-2.757 1.793-3.432 2.586-3.432 4.084 0 1.264 1.173 2.91 2.082 2.91.646 0 .675-.177.235-1.411-.235-.705-.205-1.087.147-1.792.528-1 3.255-3.32 4.957-4.202 5.719-2.909 16.102-5.26 23.522-5.289 5.016-.029 7.186.676 7.186 2.41 0 2.82-10.793 8.932-24.842 14.073-1.35.47-2.435.764-2.435.617 0-.146.528-1.469 1.173-2.967 2.757-6.229 2.61-8.609-.44-7.61-1.407.47-1.965 1.645-3.373 7.11a377.929 377.929 0 00-1.173 4.496c0 .059-.469.264-1.026.44-.558.177-1.29.676-1.613 1.117-.587.735-.587.793-.118 1.146.294.206.763.382 1.056.382.293 0 .528.176.528.352 0 .382-1.202 4.349-1.584 5.26-.176.411.03.529 1.144.617.763.058 1.467-.03 1.555-.206.117-.147.733-1.675 1.378-3.379l1.203-3.085 2.17-.235c3.285-.353 10.94-.059 13.199.558 3.285.852 5.25 2.057 6.364 3.879 2.288 3.731-1.789 8.168-11.438 12.487-4.077 1.821-8.36 3.232-12.231 4.054-4.194.882-11.732.97-14.812.147-2.962-.793-5.455-1.998-6.394-3.085-.997-1.204-.762-1.733 1.261-2.85 1.73-.94 1.907-1.351.382-.94-1.555.411-3.432 1.557-4.019 2.41-1.671 2.585 1.027 5.17 6.512 6.228 2.2.441 10.207.588 12.817.265.645-.06 2.288-.294 3.666-.441 15.37-1.94 27.013-7.904 29.448-15.073.645-1.91.586-3.114-.206-4.613-1.76-3.35-7.186-5.112-17.07-5.553l-4.4-.176 4.4-1.734c5.632-2.233 15.281-7.08 17.745-8.96 2.288-1.734 3.813-3.762 4.018-5.319.147-1.028.059-1.263-.85-2.174-.616-.617-1.614-1.175-2.61-1.499-1.937-.587-8.243-.822-11.557-.411zM43.021.534C35.22 1.296 26.1 4.49 19.648 8.768c-3.108 2.022-3.783 3.311-2.786 5.216.41.82 1.496 1.758 1.994 1.758.147 0 .147-.732.03-1.64l-.206-1.642 1.73-1.64c3.549-3.429 10.5-5.978 20.44-7.502 3.871-.615 11.173-.498 12.434.205.91.469 1.555 1.29 1.555 1.934 0 1.26-4.956 4.835-10.557 7.648-4.898 2.432-16.599 7.267-16.892 6.945-.059-.059.47-1.465 1.202-3.165 1.437-3.428 2.2-5.978 1.965-6.798-.205-.762-1.144-1.055-2.434-.703-.938.234-1.173.468-1.73 1.728-.352.792-1.114 3.312-1.7 5.597-1.027 3.897-1.145 4.19-1.966 4.571-1.085.499-2.2 1.495-2.2 1.964 0 .38.646.703 1.496.703.675 0 .616.38-.615 3.839l-.763 2.256 1.29.176c.704.088 1.408.117 1.525.029.118-.088.734-1.524 1.32-3.223.616-1.67 1.29-3.224 1.525-3.429.293-.234 2.229-.351 6.334-.351 4.78-.03 6.364.088 8.27.527 8.798 2.022 10 7.59 2.698 12.542-3.842 2.607-11.525 5.977-16.569 7.237-9.56 2.462-19.384 1.73-23.607-1.758-1.671-1.377-1.408-2.051 1.32-3.604 1.437-.85.352-.967-1.496-.147C1.408 38.803 0 40.356 0 41.528c0 1.202 1.408 2.726 3.255 3.517 2.64 1.113 5.367 1.553 10.088 1.582 15.425.059 30.704-4.6 36.92-11.252.763-.82 1.79-2.344 2.288-3.4 2.053-4.395.264-7.676-5.161-9.464-2.786-.938-6.657-1.494-11.554-1.7l-4.458-.175 4.311-1.73c4.956-1.933 13.431-6.065 16.13-7.823 3.724-2.403 5.659-4.747 5.659-6.857 0-3.106-5.63-4.541-14.457-3.692zm110.13 17.657c-5.696 2.82-9.072 9.42-5.872 11.368 1.439.872 4.433.669 8.22-.523 1.293-.407 1.498-.378 2.496.087 1.733.814 3.553.64 5.755-.552 1.85-1.018 1.908-1.018 1.996-.408.147 1.047 1.82 1.716 3.817 1.541.94-.087 2.173-.349 2.76-.61.998-.407 1.057-.407 1.204.145.117.465.41.582 1.409.582h1.233l.176-1.745c.5-4.477 3.435-7.472 6.753-6.861 1.762.32 1.82.756.323 2.5-1.585 1.832-2.173 2.908-2.173 3.925 0 1.047 1.468 2.471 2.555 2.471 1.409 0 3.758-.814 5.314-1.86l1.468-.96.176 1.076c.088.61.352 1.25.617 1.454 1.233 1.017 5.196.872 7.516-.32 1.673-.814 1.409-1.134-.529-.64-2.378.61-4.051.582-4.785-.058-.764-.698-.734-1.017.293-4.361 1.087-3.518 1.116-4.274.118-5.059-1.468-1.134-5.08-.581-7.194 1.134l-1.115.872-1.292-.901c-1.703-1.192-3.142-1.337-5.197-.581-2.936 1.104-4.61 2.965-5.431 6.134-.294 1.163-.47 1.367-1.645 1.803-1.908.727-3.552.668-4.315-.146-.353-.378-.646-.785-.646-.96 0-.145.616-1.25 1.32-2.441.735-1.192 1.322-2.5 1.322-2.908 0-2.18-3.2-2.733-6.43-1.134-2.114 1.047-4.668 3.257-5.46 4.74-.47.843-1.116 1.308-3.23 2.354-3.524 1.745-5.432 1.745-5.432 0 0-.436.558-.872 2.173-1.686 4.316-2.18 7.398-4.71 7.927-6.512.616-1.948-3.054-2.5-6.195-.96zm3.154 1.574c0 1.033-2.27 3.159-4.72 4.458-2.032 1.092-2.3 1.122-2.57.472-.538-1.417 4.273-5.668 6.483-5.727.687 0 .807.118.807.797zm34.577 1.65c.288.297.375.712.288 1.127-.26.918-5.136 5.747-6.088 5.984-1.558.415-2.308-1.066-1.414-2.814 1.674-3.348 5.742-5.778 7.214-4.296zm-24.318.456c.325.326.591.8.591 1.067 0 .711-3.28 3.794-4.877 4.565-1.3.623-1.507.652-2.187.267-1.3-.741-1.153-1.571.71-3.498 1.654-1.72 3.605-2.994 4.67-2.994.266 0 .768.267 1.093.593zM61.487 18.469c-2.08.96-5.039 3.603-6.064 5.375-1.64 2.79-1.552 5.23.234 6.13 1.172.61 4.834.407 7.529-.436l1.904-.61 1.435.61c1.758.727 3.046.61 5.243-.552.85-.435 1.611-.813 1.729-.871.087-.058.263.174.38.523.47 1.423 3.428 1.86 6.24.9 1.494-.522 1.523-.493 1.523.03 0 .493.176.552 1.406.464l1.377-.087.205-1.917c.205-2.266.996-3.893 2.402-5.143 1.464-1.249 3.075-1.714 4.57-1.249.644.174 1.171.465 1.171.64 0 .145-.644 1.045-1.435 2.004-1.846 2.179-2.285 3.428-1.64 4.62.234.493.702 1.016.995 1.19 1.377.698 4.277.03 6.62-1.54l1.172-.784.38 1.075c.587 1.743 2.08 2.237 5.274 1.801 1.786-.261 4.393-1.307 4.042-1.626-.088-.088-1.26.058-2.607.348-2.138.436-2.578.465-3.31.116-1.143-.552-1.23-1.627-.293-4.677 1.172-3.806.967-5.171-.879-5.636-1.64-.407-4.862.523-6.59 1.946l-.762.61-1.23-.871c-1.729-1.25-3.047-1.395-5.185-.61-2.871 1.075-4.804 3.399-5.507 6.71-.147.582-.469.872-1.553 1.221-2.724.93-4.775.407-4.775-1.191 0-.32.498-1.337 1.114-2.295 1.406-2.15 1.61-2.906 1.083-3.922-1.464-2.79-8.407-.233-11.365 4.183-.937 1.366-1.406 1.743-3.515 2.79-2.783 1.365-4.658 1.597-5.185.638-.498-.93-.351-1.162 1.26-1.946 4.423-2.237 8.143-5.259 8.582-6.973.498-1.975-2.753-2.498-5.975-.988zm3.022 1.846c.237 1.178-5.7 5.69-6.91 5.23-.237-.086-.414-.431-.414-.805 0-.776 3.19-3.88 4.725-4.627 1.3-.603 2.481-.517 2.6.202zm34.512 1.36c.83.618.356 1.794-1.542 3.765-1.927 2-4.062 3.5-4.981 3.5-2.105 0-1.571-2.647 1.067-5.265 2.165-2.117 4.21-2.882 5.456-2zm-24.33.678c.819.648.351 1.62-1.693 3.533-2.396 2.297-3.915 2.945-5.112 2.15-.41-.265-.73-.648-.73-.884 0-.618 1.577-2.65 2.891-3.71 1.987-1.56 3.564-1.943 4.645-1.089z" fill="#000"></path></g></svg>